HIERARCHY
ROOT Hips
{
	OFFSET 0.000000 0.000000 0.000000 
	CHANNELS 6 Xposition Yposition Zposition Yrotation Zrotation Xrotation 
	JOINT Lumbar
	{
		OFFSET 0.000000 0.000000 0.000000 
		CHANNELS 3 Zrotation Xrotation Yrotation
		JOINT Neck
		{
			OFFSET 0.000000 0.445665 0.000000 
			CHANNELS 3 Zrotation Xrotation Yrotation
			End Site
			{
				OFFSET 0.000000 0.227535 0.000000 
			}
		}
		JOINT RightShoulder
		{
			OFFSET 0.019635 0.377685 0.194865 
			CHANNELS 3 Zrotation Xrotation Yrotation
			JOINT RightElbow
			{
				OFFSET 0.000000 -0.243375 0.000000 
				CHANNELS 2 Zrotation Yrotation
				JOINT RightWrist
				{
					OFFSET 0.000000 -0.264825 0.000000 
					CHANNELS 2 Zrotation Xrotation
					End Site
					{
						OFFSET 0.006600 -0.176220 0.000990 
					}
				}
			}
		}
		JOINT LeftShoulder
		{
			OFFSET 0.019635 0.377685 -0.194865 
			CHANNELS 3 Zrotation Xrotation Yrotation
			JOINT LeftElbow
			{
				OFFSET 0.000000 -0.243375 0.000000 
				CHANNELS 2 Zrotation Yrotation
				JOINT LeftWrist
				{
					OFFSET 0.000000 -0.264825 0.000000 
					CHANNELS 2 Zrotation Xrotation
					End Site
					{
						OFFSET 0.006600 -0.176220 -0.000990 
					}
				}
			}
		}
	}
	JOINT RightHip
	{
		OFFSET 0.052140 -0.069960 0.075570 
		CHANNELS 3 Zrotation Xrotation Yrotation
		JOINT RightKnee
		{
			OFFSET 0.000000 -0.402270 0.000000 
			CHANNELS 1 Zrotation
			JOINT RightAnkle
			{
				OFFSET 0.000000 -0.404085 0.000000 
				CHANNELS 3 Zrotation Xrotation Yrotation
				End Site
				{
					OFFSET 0.204105 -0.089430 0.008415 
				}
			}
		}
	}
	JOINT LeftHip
	{
		OFFSET 0.052140 -0.069960 -0.075570 
		CHANNELS 3 Zrotation Xrotation Yrotation
		JOINT LeftKnee
		{
			OFFSET 0.000000 -0.402270 0.000000 
			CHANNELS 1 Zrotation
			JOINT LeftAnkle
			{
				OFFSET 0.000000 -0.404085 0.000000 
				CHANNELS 3 Zrotation Xrotation Yrotation
				End Site
				{
					OFFSET 0.204105 -0.089430 -0.008415 
				}
			}
		}
	}
}
MOTION
Frames: 19
Frame Time: 0.02
-0.00074 -6e-05 0.00012 23.2532 -31.76375 -6.90548 49.97786 1.27024 -3.9187 -1.34319 0.09264 -0.8261 -20.96727 -7.92494 -5.60651 35.21254 88.85903 3.69916 1.23451 -32.32443 -2.55179 30.52059 44.54004 -159.74621 31.14319 -11.00797 47.22405 -1.3009 -2.48798 -19.4903 -6.76738 -3.17047 -3.79104 49.90466 5.57775 3.46392 -24.97647 -6.84141 2.94497 3.70346
-0.00048 -2e-05 -5e-05 23.30288 -31.75407 -6.90488 49.98522 1.26858 -3.90367 -1.28629 0.07136 -0.82735 -20.86478 -7.91784 -5.42412 35.23451 88.90389 3.73753 1.23599 -32.02224 -1.46074 27.68516 44.68069 -153.57769 28.97737 -10.11296 47.17457 -1.40137 -3.04715 -19.49076 -6.74281 -3.1207 -3.76416 49.87056 5.64 3.77437 -24.97793 -6.83067 2.92347 3.68805
-0.00021 3e-05 -0.00021 23.35245 -31.74443 -6.90428 49.99256 1.26691 -3.88886 -1.22939 0.05013 -0.82859 -20.76228 -7.91076 -5.24204 35.25643 88.94883 3.77596 1.23747 -31.72012 -0.37264 24.85725 44.82114 -147.42865 26.81873 -9.22067 47.12526 -1.50153 -3.60471 -19.49124 -6.71832 -3.07109 -3.73736 49.83659 5.70208 4.08397 -24.97939 -6.81996 2.90203 3.67268
6e-05 7e-05 -0.00038 23.40198 -31.73479 -6.90368 49.99991 1.26525 -3.87391 -1.17265 0.02891 -0.82983 -20.66006 -7.90367 -5.06019 35.27833 88.9936 3.81425 1.23894 -31.41873 0.71512 22.03033 44.9614 -141.27924 24.65968 -8.32842 47.07594 -1.60168 -4.16217 -19.49171 -6.69383 -3.02147 -3.71056 49.80259 5.76414 4.39348 -24.98085 -6.80926 2.88059 3.65732
0.00032 0.00012 -0.00055 23.45161 -31.72509 -6.90307 50.00727 1.26361 -3.85867 -1.11594 0.00767 -0.83107 -20.55796 -7.89659 -4.87809 35.3003 89.03817 3.85238 1.24042 -31.11759 1.80566 19.19641 45.10175 -135.11009 22.49321 -7.43345 47.02646 -1.70214 -4.72123 -19.49216 -6.66927 -2.97171 -3.68368 49.76847 5.82637 4.70383 -24.9823 -6.79853 2.85911 3.64192
0.00059 0.00016 -0.00071 23.50103 -31.71558 -6.90251 50.01453 1.26187 -3.84477 -1.05864 -0.01355 -0.83232 -20.45464 -7.88955 -4.69604 35.3221 89.08388 3.89143 1.24188 -30.81341 2.88855 16.38135 45.2424 -129.00361 20.35111 -6.54684 46.9775 -1.80167 -5.27559 -19.49269 -6.64489 -2.9224 -3.65705 49.7348 5.88814 5.01185 -24.98376 -6.78786 2.83774 3.62663
0.00086 0.00021 -0.00088 23.5508 -31.70572 -6.90185 50.02206 1.26034 -3.82819 -1.00265 -0.03481 -0.83353 -20.35388 -7.88236 -4.51419 35.34416 89.12734 3.92864 1.24338 -30.51574 3.98562 13.53141 45.38234 -122.77833 18.16263 -5.64445 46.92754 -1.90294 -5.83871 -19.49308 -6.62019 -2.87224 -3.62996 49.70026 5.95074 5.32412 -24.98522 -6.77708 2.81618 3.61114
0.00112 0.00025 -0.00104 23.60031 -31.69617 -6.90128 50.02921 1.25861 -3.81409 -0.94536 -0.05602 -0.83482 -20.25077 -7.87541 -4.33197 35.36608 89.1727 3.96748 1.24484 -30.21198 5.06967 10.7137 45.52285 -116.66157 16.01639 -4.7565 46.87851 -2.00263 -6.39392 -19.49357 -6.59579 -2.82286 -3.60328 49.66654 6.01261 5.63264 -24.98667 -6.76641 2.79477 3.59582
0.00138 0.0003 -0.0012 23.6493 -31.68702 -6.90082 50.03642 1.25663 -3.80302 -0.88677 -0.0772 -0.83605 -20.14465 -7.86837 -4.14995 35.38747 89.22112 4.00861 1.24627 -29.90082 6.13809 7.93374 45.6645 -110.6791 13.92306 -3.88627 46.83058 -2.10033 -6.93906 -19.49429 -6.57174 -2.77445 -3.57714 49.63371 6.07349 5.93607 -24.98815 -6.75585 2.77364 3.58076
0.00167 0.00035 -0.00139 23.70067 -31.67563 -6.89972 50.04484 1.25608 -3.77451 -0.83655 -0.09864 -0.83714 -20.05546 -7.86069 -3.9687 35.41086 89.25414 4.03745 1.24792 -29.63233 7.29733 4.93153 45.80091 -103.92871 11.52908 -2.91425 46.7762 -2.20931 -7.54093 -19.494 -6.54559 -2.72051 -3.54798 49.59542 6.13975 6.26728 -24.98958 -6.74458 2.75117 3.56433
0.0019 0.00038 -0.00152 23.74736 -31.66896 -6.9 50.04974 1.25251 -3.78279 -0.76812 -0.11947 -0.83883 -19.93081 -7.8551 -3.78464 35.43068 89.31824 4.09164 1.2491 -29.27388 8.26428 2.40179 45.94749 -98.79585 9.7671 -2.15696 46.73553 -2.29458 -8.02382 -19.49566 -6.52394 -2.67819 -3.52516 49.56887 6.19489 6.54081 -24.99102 -6.73485 2.73138 3.55073
0.002 0.00036 -0.00151 23.77842 -31.6756 -6.90391 50.05205 1.24072 -3.89291 -0.65332 -0.13914 -0.83986 -19.7057 -7.84961 -3.6018 35.4359 89.48068 4.22112 1.24911 -28.66494 8.70495 1.14966 46.12989 -98.16256 9.77397 -1.994 46.73247 -2.31351 -8.17106 -19.50401 -6.51436 -2.66842 -3.52008 49.5736 6.21732 6.64675 -24.99336 -6.72912 2.72007 3.54552
0.00204 0.00033 -0.00144 23.80539 -31.68707 -6.90925 50.04908 1.22592 -4.03961 -0.51929 -0.1581 -0.84192 -19.44565 -7.84757 -3.41413 35.43889 89.67226 4.3751 1.24864 -27.96627 8.95277 0.37463 46.32126 -99.13998 10.40809 -2.04517 46.74352 -2.30883 -8.20031 -19.51405 -6.5094 -2.67022 -3.5213 49.59067 6.22895 6.69637 -24.99556 -6.72502 2.71122 3.54303
0.00209 0.00031 -0.00139 23.8359 -31.6959 -6.91404 50.04442 1.21237 -4.16923 -0.39205 -0.177 -0.84502 -19.2035 -7.84723 -3.22331 35.44546 89.84149 4.51402 1.24831 -27.31105 9.28728 -0.60541 46.50304 -99.34326 10.73381 -1.9957 46.74769 -2.31585 -8.28981 -19.52244 -6.50244 -2.66624 -3.51937 49.60222 6.24701 6.77801 -24.99724 -6.72025 2.70051 3.53888
0.00222 0.00028 -0.00139 23.85887 -31.70602 -6.91837 50.05876 1.19911 -4.30164 -0.2741 -0.19743 -0.84176 -18.95233 -7.83185 -3.05651 35.43931 90.04772 4.66919 1.24831 -26.64454 9.62337 -1.6311 46.70712 -99.73668 11.16329 -1.96293 46.75247 -2.3189 -8.35197 -19.53456 -6.49487 -2.66437 -3.51858 49.61185 6.25882 6.83295 -25.00132 -6.71499 2.69299 3.53651
0.00216 0.00025 -0.00127 23.89709 -31.71535 -6.92407 50.0301 1.18478 -4.43592 -0.13088 -0.21459 -0.85199 -18.71221 -7.85018 -2.83668 35.46148 90.18567 4.79678 1.2475 -25.98005 9.91302 -2.45269 46.8681 -100.10462 11.52037 -1.94337 46.76108 -2.32441 -8.44198 -19.5393 -6.48993 -2.66101 -3.517 49.6304 6.28087 6.9295 -25.00044 -6.71139 2.67936 3.53108
0.00173 0.00025 -0.0009 23.97399 -31.71533 -6.93254 49.90212 1.16616 -4.57459 0.06593 -0.2222 -0.89941 -18.50664 -7.94757 -2.4875 35.54212 90.1113 4.83787 1.24468 -25.34615 10.09889 -2.79076 46.89754 -100.10615 11.56691 -1.93275 46.7623 -2.34438 -8.64828 -19.52375 -6.48897 -2.64934 -3.51086 49.65422 6.33568 7.16032 -24.98527 -6.70992 2.64849 3.51643
0.0011 0.00025 -0.0004 24.06723 -31.71574 -6.94252 49.72739 1.14698 -4.71223 0.28981 -0.22671 -0.96033 -18.31421 -8.08129 -2.08229 35.65501 89.96993 4.85103 1.24103 -24.7173 10.24805 -2.9446 46.88527 -100.01308 11.51277 -1.92471 46.77009 -2.36729 -8.88497 -19.5008 -6.49093 -2.63601 -3.50384 49.69013 6.40088 7.43375 -24.9653 -6.71048 2.61135 3.49861
0.00047 0.00024 9e-05 24.15584 -31.71956 -6.95213 49.56252 1.12935 -4.84511 0.50862 -0.23302 -1.01498 -18.11879 -8.20701 -1.69211 35.76655 89.87062 4.87999 1.23773 -24.08366 10.43017 -3.20988 46.89876 -99.89157 11.47376 -1.89733 46.78371 -2.38764 -9.10063 -19.48069 -6.49297 -2.62436 -3.49776 49.73059 6.4601 7.68425 -24.94787 -6.71142 2.57691 3.48229
